<svg width="128" height="128" viewBox="0 0 128 128" fill="none" xmlns="http://www.w3.org/2000/svg">
<rect width="128" height="128" fill="#00451C"/>
<path d="M32.4648 36.8984H27.5078V44H26.0547V26.9375H31.5977C33.418 26.9375 34.8398 27.3789 35.8633 28.2617C36.8867 29.1445 37.3984 30.3789 37.3984 31.9648C37.3984 33.0586 37.0781 34.0234 36.4375 34.8594C35.7969 35.6953 34.9375 36.2734 33.8594 36.5938L38.125 43.8477V44H36.5898L32.4648 36.8984ZM27.5078 35.668H31.9258C33.1367 35.668 34.1094 35.3242 34.8438 34.6367C35.5781 33.9492 35.9453 33.0586 35.9453 31.9648C35.9453 30.7617 35.5625 29.8281 34.7969 29.1641C34.0312 28.5 32.957 28.168 31.5742 28.168H27.5078V35.668ZM45.9062 44.2344C44.8281 44.2344 43.8516 43.9688 42.9766 43.4375C42.1094 42.9062 41.4336 42.168 40.9492 41.2227C40.4648 40.2695 40.2227 39.2031 40.2227 38.0234V37.5195C40.2227 36.3008 40.457 35.2031 40.9258 34.2266C41.4023 33.25 42.0625 32.4844 42.9062 31.9297C43.75 31.3672 44.6641 31.0859 45.6484 31.0859C47.1875 31.0859 48.4062 31.6133 49.3047 32.668C50.2109 33.7148 50.6641 35.1484 50.6641 36.9688V37.7539H41.6172V38.0234C41.6172 39.4609 42.0273 40.6602 42.8477 41.6211C43.6758 42.5742 44.7148 43.0508 45.9648 43.0508C46.7148 43.0508 47.375 42.9141 47.9453 42.6406C48.5234 42.3672 49.0469 41.9297 49.5156 41.3281L50.3945 41.9961C49.3633 43.4883 47.8672 44.2344 45.9062 44.2344ZM45.6484 32.2812C44.5938 32.2812 43.7031 32.668 42.9766 33.4414C42.2578 34.2148 41.8203 35.2539 41.6641 36.5586H49.2695V36.4062C49.2305 35.1875 48.8828 34.1953 48.2266 33.4297C47.5703 32.6641 46.7109 32.2812 45.6484 32.2812ZM54.6719 31.3203L54.7188 33.3828C55.1875 32.6172 55.7734 32.043 56.4766 31.6602C57.1797 31.2773 57.9609 31.0859 58.8203 31.0859C60.8203 31.0859 62.0898 31.9062 62.6289 33.5469C63.082 32.7578 63.6875 32.1523 64.4453 31.7305C65.2031 31.3008 66.0391 31.0859 66.9531 31.0859C69.6719 31.0859 71.0586 32.5703 71.1133 35.5391V44H69.707V35.6445C69.6992 34.5117 69.4531 33.6719 68.9688 33.125C68.4922 32.5781 67.7109 32.3047 66.625 32.3047C65.6172 32.3203 64.7656 32.6484 64.0703 33.2891C63.375 33.9219 62.9883 34.6953 62.9102 35.6094V44H61.5039V35.5391C61.4961 34.4531 61.2383 33.6445 60.7305 33.1133C60.2305 32.5742 59.457 32.3047 58.4102 32.3047C57.5273 32.3047 56.7695 32.5586 56.1367 33.0664C55.5039 33.5664 55.0352 34.3125 54.7305 35.3047V44H53.3242V31.3203H54.6719ZM73.9023 37.4727C73.9023 36.2539 74.1367 35.1562 74.6055 34.1797C75.082 33.2031 75.75 32.4453 76.6094 31.9062C77.4766 31.3594 78.457 31.0859 79.5508 31.0859C81.2383 31.0859 82.6055 31.6797 83.6523 32.8672C84.6992 34.0469 85.2227 35.6133 85.2227 37.5664V37.8594C85.2227 39.0859 84.9844 40.1914 84.5078 41.1758C84.0391 42.1523 83.375 42.9062 82.5156 43.4375C81.6562 43.9688 80.6758 44.2344 79.5742 44.2344C77.8945 44.2344 76.5273 43.6445 75.4727 42.4648C74.4258 41.2773 73.9023 39.707 73.9023 37.7539V37.4727ZM75.3086 37.8594C75.3086 39.375 75.6992 40.6211 76.4805 41.5977C77.2695 42.5664 78.3008 43.0508 79.5742 43.0508C80.8398 43.0508 81.8633 42.5664 82.6445 41.5977C83.4336 40.6211 83.8281 39.3359 83.8281 37.7422V37.4727C83.8281 36.5039 83.6484 35.6172 83.2891 34.8125C82.9297 34.0078 82.4258 33.3867 81.7773 32.9492C81.1289 32.5039 80.3867 32.2812 79.5508 32.2812C78.3008 32.2812 77.2812 32.7734 76.4922 33.7578C75.7031 34.7344 75.3086 36.0156 75.3086 37.6016V37.8594ZM91.8906 42.0664L95.7461 31.3203H97.1875L92.4531 44H91.3164L86.5586 31.3203H88L91.8906 42.0664ZM104.242 44.2344C103.164 44.2344 102.188 43.9688 101.312 43.4375C100.445 42.9062 99.7695 42.168 99.2852 41.2227C98.8008 40.2695 98.5586 39.2031 98.5586 38.0234V37.5195C98.5586 36.3008 98.793 35.2031 99.2617 34.2266C99.7383 33.25 100.398 32.4844 101.242 31.9297C102.086 31.3672 103 31.0859 103.984 31.0859C105.523 31.0859 106.742 31.6133 107.641 32.668C108.547 33.7148 109 35.1484 109 36.9688V37.7539H99.9531V38.0234C99.9531 39.4609 100.363 40.6602 101.184 41.6211C102.012 42.5742 103.051 43.0508 104.301 43.0508C105.051 43.0508 105.711 42.9141 106.281 42.6406C106.859 42.3672 107.383 41.9297 107.852 41.3281L108.73 41.9961C107.699 43.4883 106.203 44.2344 104.242 44.2344ZM103.984 32.2812C102.93 32.2812 102.039 32.668 101.312 33.4414C100.594 34.2148 100.156 35.2539 100 36.5586H107.605V36.4062C107.566 35.1875 107.219 34.1953 106.562 33.4297C105.906 32.6641 105.047 32.2812 103.984 32.2812ZM15.8125 67.2188H8.06641L6.30859 72H4.79688L11.2539 54.9375H12.625L19.082 72H17.582L15.8125 67.2188ZM8.51172 65.9883H15.3555L11.9336 56.6953L8.51172 65.9883ZM20.7109 65.543C20.7109 63.5742 21.1484 62.0078 22.0234 60.8438C22.9062 59.6719 24.1016 59.0859 25.6094 59.0859C27.3203 59.0859 28.625 59.7617 29.5234 61.1133V54H30.918V72H29.6055L29.5469 70.3125C28.6484 71.5938 27.3281 72.2344 25.5859 72.2344C24.125 72.2344 22.9453 71.6484 22.0469 70.4766C21.1562 69.2969 20.7109 67.707 20.7109 65.707V65.543ZM22.1289 65.7891C22.1289 67.4062 22.4531 68.6836 23.1016 69.6211C23.75 70.5508 24.6641 71.0156 25.8438 71.0156C27.5703 71.0156 28.7969 70.2539 29.5234 68.7305V62.7773C28.7969 61.1289 27.5781 60.3047 25.8672 60.3047C24.6875 60.3047 23.7695 60.7695 23.1133 61.6992C22.457 62.6211 22.1289 63.9844 22.1289 65.7891ZM34.0469 65.543C34.0469 63.5742 34.4844 62.0078 35.3594 60.8438C36.2422 59.6719 37.4375 59.0859 38.9453 59.0859C40.6562 59.0859 41.9609 59.7617 42.8594 61.1133V54H44.2539V72H42.9414L42.8828 70.3125C41.9844 71.5938 40.6641 72.2344 38.9219 72.2344C37.4609 72.2344 36.2812 71.6484 35.3828 70.4766C34.4922 69.2969 34.0469 67.707 34.0469 65.707V65.543ZM35.4648 65.7891C35.4648 67.4062 35.7891 68.6836 36.4375 69.6211C37.0859 70.5508 38 71.0156 39.1797 71.0156C40.9062 71.0156 42.1328 70.2539 42.8594 68.7305V62.7773C42.1328 61.1289 40.9141 60.3047 39.2031 60.3047C38.0234 60.3047 37.1055 60.7695 36.4492 61.6992C35.793 62.6211 35.4648 63.9844 35.4648 65.7891ZM55.9609 56.0742V59.3203H58.5859V60.4688H55.9609V68.918C55.9609 69.6211 56.0859 70.1445 56.3359 70.4883C56.5938 70.832 57.0195 71.0039 57.6133 71.0039C57.8477 71.0039 58.2266 70.9648 58.75 70.8867L58.8086 72.0352C58.4414 72.168 57.9414 72.2344 57.3086 72.2344C56.3477 72.2344 55.6484 71.957 55.2109 71.4023C54.7734 70.8398 54.5547 70.0156 54.5547 68.9297V60.4688H52.2227V59.3203H54.5547V56.0742H55.9609ZM60.4844 65.4727C60.4844 64.2539 60.7188 63.1562 61.1875 62.1797C61.6641 61.2031 62.332 60.4453 63.1914 59.9062C64.0586 59.3594 65.0391 59.0859 66.1328 59.0859C67.8203 59.0859 69.1875 59.6797 70.2344 60.8672C71.2812 62.0469 71.8047 63.6133 71.8047 65.5664V65.8594C71.8047 67.0859 71.5664 68.1914 71.0898 69.1758C70.6211 70.1523 69.957 70.9062 69.0977 71.4375C68.2383 71.9688 67.2578 72.2344 66.1562 72.2344C64.4766 72.2344 63.1094 71.6445 62.0547 70.4648C61.0078 69.2773 60.4844 67.707 60.4844 65.7539V65.4727ZM61.8906 65.8594C61.8906 67.375 62.2812 68.6211 63.0625 69.5977C63.8516 70.5664 64.8828 71.0508 66.1562 71.0508C67.4219 71.0508 68.4453 70.5664 69.2266 69.5977C70.0156 68.6211 70.4102 67.3359 70.4102 65.7422V65.4727C70.4102 64.5039 70.2305 63.6172 69.8711 62.8125C69.5117 62.0078 69.0078 61.3867 68.3594 60.9492C67.7109 60.5039 66.9688 60.2812 66.1328 60.2812C64.8828 60.2812 63.8633 60.7734 63.0742 61.7578C62.2852 62.7344 61.8906 64.0156 61.8906 65.6016V65.8594ZM92.957 66.6797C92.7617 68.4766 92.1172 69.8516 91.0234 70.8047C89.9375 71.7578 88.4883 72.2344 86.6758 72.2344C85.4102 72.2344 84.2891 71.918 83.3125 71.2852C82.3438 70.6523 81.5938 69.7578 81.0625 68.6016C80.5312 67.4375 80.2617 66.1094 80.2539 64.6172V62.4023C80.2539 60.8867 80.5195 59.543 81.0508 58.3711C81.582 57.1992 82.3438 56.2969 83.3359 55.6641C84.3359 55.0234 85.4844 54.7031 86.7812 54.7031C88.6094 54.7031 90.0508 55.1992 91.1055 56.1914C92.168 57.1758 92.7852 58.5391 92.957 60.2812H91.5039C91.1445 57.3828 89.5703 55.9336 86.7812 55.9336C85.2344 55.9336 84 56.5117 83.0781 57.668C82.1641 58.8242 81.707 60.4219 81.707 62.4609V64.5469C81.707 66.5156 82.1523 68.0859 83.043 69.2578C83.9414 70.4297 85.1523 71.0156 86.6758 71.0156C88.1836 71.0156 89.3203 70.6562 90.0859 69.9375C90.8516 69.2109 91.3242 68.125 91.5039 66.6797H92.957ZM104.137 72C103.996 71.6016 103.906 71.0117 103.867 70.2305C103.375 70.8711 102.746 71.3672 101.98 71.7188C101.223 72.0625 100.418 72.2344 99.5664 72.2344C98.3477 72.2344 97.3594 71.8945 96.6016 71.2148C95.8516 70.5352 95.4766 69.6758 95.4766 68.6367C95.4766 67.4023 95.9883 66.4258 97.0117 65.707C98.043 64.9883 99.4766 64.6289 101.312 64.6289H103.855V63.1875C103.855 62.2812 103.574 61.5703 103.012 61.0547C102.457 60.5312 101.645 60.2695 100.574 60.2695C99.5977 60.2695 98.7891 60.5195 98.1484 61.0195C97.5078 61.5195 97.1875 62.1211 97.1875 62.8242L95.7812 62.8125C95.7812 61.8047 96.25 60.9336 97.1875 60.1992C98.125 59.457 99.2773 59.0859 100.645 59.0859C102.059 59.0859 103.172 59.4414 103.984 60.1523C104.805 60.8555 105.227 61.8398 105.25 63.1055V69.1055C105.25 70.332 105.379 71.25 105.637 71.8594V72H104.137ZM99.7305 70.9922C100.668 70.9922 101.504 70.7656 102.238 70.3125C102.98 69.8594 103.52 69.2539 103.855 68.4961V65.707H101.348C99.9492 65.7227 98.8555 65.9805 98.0664 66.4805C97.2773 66.9727 96.8828 67.6523 96.8828 68.5195C96.8828 69.2305 97.1445 69.8203 97.668 70.2891C98.1992 70.7578 98.8867 70.9922 99.7305 70.9922ZM114.859 60.5156C114.562 60.4609 114.246 60.4336 113.91 60.4336C113.035 60.4336 112.293 60.6797 111.684 61.1719C111.082 61.6562 110.652 62.3633 110.395 63.293V72H109V59.3203H110.371L110.395 61.3359C111.137 59.8359 112.328 59.0859 113.969 59.0859C114.359 59.0859 114.668 59.1367 114.895 59.2383L114.859 60.5156ZM119.852 56.0742V59.3203H122.477V60.4688H119.852V68.918C119.852 69.6211 119.977 70.1445 120.227 70.4883C120.484 70.832 120.91 71.0039 121.504 71.0039C121.738 71.0039 122.117 70.9648 122.641 70.8867L122.699 72.0352C122.332 72.168 121.832 72.2344 121.199 72.2344C120.238 72.2344 119.539 71.957 119.102 71.4023C118.664 70.8398 118.445 70.0156 118.445 68.9297V60.4688H116.113V59.3203H118.445V56.0742H119.852ZM33.4697 100V82.9375H38.5088C40.3369 82.9375 41.7236 83.3164 42.6689 84.0742C43.6143 84.8242 44.0869 85.9336 44.0869 87.4023C44.0869 88.2852 43.8447 89.0547 43.3604 89.7109C42.8838 90.3594 42.2275 90.8242 41.3916 91.1055C42.3838 91.3242 43.1807 91.8125 43.7822 92.5703C44.3916 93.3281 44.6963 94.2031 44.6963 95.1953C44.6963 96.7031 44.208 97.8828 43.2314 98.7344C42.2627 99.5781 40.9111 100 39.1768 100H33.4697ZM34.9111 91.7969V98.7812H39.2354C40.4697 98.7812 41.4463 98.4688 42.165 97.8438C42.8916 97.2109 43.2549 96.3359 43.2549 95.2188C43.2549 94.1641 42.9072 93.332 42.2119 92.7227C41.5244 92.1055 40.5713 91.7969 39.3525 91.7969H34.9111ZM34.9111 90.5898H38.8486C40.0518 90.5664 40.9814 90.2852 41.6377 89.7461C42.3018 89.1992 42.6338 88.4062 42.6338 87.3672C42.6338 86.2734 42.29 85.4688 41.6025 84.9531C40.9229 84.4297 39.8916 84.168 38.5088 84.168H34.9111V90.5898ZM56.0166 98.3945C55.1729 99.6211 53.8252 100.234 51.9736 100.234C50.6221 100.234 49.5947 99.8438 48.8916 99.0625C48.1885 98.2734 47.8291 97.1094 47.8135 95.5703V87.3203H49.208V95.3945C49.208 97.8086 50.1846 99.0156 52.1377 99.0156C54.1689 99.0156 55.4541 98.1758 55.9932 96.4961V87.3203H57.3994V100H56.04L56.0166 98.3945ZM63.2354 84.0742V87.3203H65.8604V88.4688H63.2354V96.918C63.2354 97.6211 63.3604 98.1445 63.6104 98.4883C63.8682 98.832 64.2939 99.0039 64.8877 99.0039C65.1221 99.0039 65.501 98.9648 66.0244 98.8867L66.083 100.035C65.7158 100.168 65.2158 100.234 64.583 100.234C63.6221 100.234 62.9229 99.957 62.4854 99.4023C62.0479 98.8398 61.8291 98.0156 61.8291 96.9297V88.4688H59.4971V87.3203H61.8291V84.0742H63.2354ZM70.9463 84.0742V87.3203H73.5713V88.4688H70.9463V96.918C70.9463 97.6211 71.0713 98.1445 71.3213 98.4883C71.5791 98.832 72.0049 99.0039 72.5986 99.0039C72.833 99.0039 73.2119 98.9648 73.7354 98.8867L73.7939 100.035C73.4268 100.168 72.9268 100.234 72.2939 100.234C71.333 100.234 70.6338 99.957 70.1963 99.4023C69.7588 98.8398 69.54 98.0156 69.54 96.9297V88.4688H67.208V87.3203H69.54V84.0742H70.9463ZM75.4697 93.4727C75.4697 92.2539 75.7041 91.1562 76.1729 90.1797C76.6494 89.2031 77.3174 88.4453 78.1768 87.9062C79.0439 87.3594 80.0244 87.0859 81.1182 87.0859C82.8057 87.0859 84.1729 87.6797 85.2197 88.8672C86.2666 90.0469 86.79 91.6133 86.79 93.5664V93.8594C86.79 95.0859 86.5518 96.1914 86.0752 97.1758C85.6064 98.1523 84.9424 98.9062 84.083 99.4375C83.2236 99.9688 82.2432 100.234 81.1416 100.234C79.4619 100.234 78.0947 99.6445 77.04 98.4648C75.9932 97.2773 75.4697 95.707 75.4697 93.7539V93.4727ZM76.876 93.8594C76.876 95.375 77.2666 96.6211 78.0479 97.5977C78.8369 98.5664 79.8682 99.0508 81.1416 99.0508C82.4072 99.0508 83.4307 98.5664 84.2119 97.5977C85.001 96.6211 85.3955 95.3359 85.3955 93.7422V93.4727C85.3955 92.5039 85.2158 91.6172 84.8564 90.8125C84.4971 90.0078 83.9932 89.3867 83.3447 88.9492C82.6963 88.5039 81.9541 88.2812 81.1182 88.2812C79.8682 88.2812 78.8486 88.7734 78.0596 89.7578C77.2705 90.7344 76.876 92.0156 76.876 93.6016V93.8594ZM91.0322 87.3203L91.0791 89.4883C91.5557 88.707 92.1494 88.1133 92.8604 87.707C93.5713 87.293 94.3564 87.0859 95.2158 87.0859C96.5752 87.0859 97.5869 87.4688 98.251 88.2344C98.915 89 99.251 90.1484 99.2588 91.6797V100H97.8643V91.668C97.8564 90.5352 97.6143 89.6914 97.1377 89.1367C96.6689 88.582 95.915 88.3047 94.876 88.3047C94.0088 88.3047 93.2393 88.5781 92.5674 89.125C91.9033 89.6641 91.4111 90.3945 91.0908 91.3164V100H89.6963V87.3203H91.0322Z" fill="#FFFBFB"/>
</svg>
